<svg width="132" height="34" viewBox="0 0 132 34" fill="none" xmlns="http://www.w3.org/2000/svg">
<path fill-rule="evenodd" clip-rule="evenodd" d="M125.613 24.6302V24.8894H126.113H126.612V26.1672V27.445H126.955H127.298V26.1672V24.8894H127.797H128.297V24.6302V24.3711H126.955H125.613V24.6302ZM128.728 25.9081V27.445H129.051H129.374L129.379 26.267L129.384 25.0891L129.708 26.2626L130.032 27.4361L130.365 27.441L130.697 27.4458L130.78 27.1461C130.826 26.9812 130.974 26.449 131.108 25.9635C131.242 25.4779 131.357 25.0765 131.362 25.0714C131.368 25.0663 131.372 25.5983 131.372 26.2536V27.445H131.686H131.999V25.9081V24.3711H131.48C131.075 24.3711 130.961 24.376 130.961 24.3937C130.961 24.4061 130.881 24.6936 130.783 25.0326C130.543 25.8657 130.457 26.1635 130.419 26.3012C130.402 26.3651 130.382 26.4232 130.375 26.4302C130.368 26.4373 130.294 26.204 130.209 25.9119C130.124 25.6198 130.026 25.2843 129.991 25.1664C129.956 25.0484 129.889 24.8212 129.844 24.6615L129.761 24.3711H129.244H128.728V25.9081Z" fill="black"/>
<path d="M39.6211 27.9528H44.7664V19.3042C44.7664 15.1441 45.5693 13.6844 47.8318 13.6844C49.7658 13.6844 50.3862 14.9252 50.3862 18.6838V27.9528H55.5315V19.2312C55.5315 15.1806 56.3709 13.6844 58.5969 13.6844C60.5309 13.6844 61.1513 14.9252 61.1513 18.6838V27.9528H66.2966V18.4284C66.2966 15.655 66.0412 13.8304 65.5303 12.5897C64.691 10.6191 62.8664 9.59736 60.312 9.59736C57.794 9.59736 56.1519 10.3637 54.6557 12.2613C53.7434 10.4732 52.1013 9.59736 49.5834 9.59736C47.2844 9.59736 45.8977 10.2177 44.511 11.8234L44.2191 10.0718H39.6211V27.9528Z" fill="black"/>
<path d="M87.3356 20.253C87.4086 19.5231 87.4086 19.1217 87.4086 18.6838C87.4086 12.8086 84.3798 9.63385 78.833 9.63385C73.3228 9.63385 70.1845 13.0276 70.1845 19.0123C70.1845 25.2524 73.4322 28.4272 79.8548 28.4272C82.6647 28.4272 84.7447 27.9528 86.9342 26.858L85.4016 23.2818C83.7959 24.2306 82.0808 24.6685 80.1102 24.6685C76.9354 24.6685 75.2203 23.1358 75.2203 20.253H87.3356ZM75.2933 16.9687C75.4028 14.4508 76.68 13.1371 78.979 13.1371C81.3145 13.1371 82.4092 14.3413 82.5187 16.9687H75.2933Z" fill="black"/>
<path d="M89.8464 26.8215C91.7805 27.9528 93.7511 28.4272 96.5609 28.4272C101.56 28.4272 104.005 26.5661 104.005 22.8074C104.005 21.0923 103.458 19.7056 102.363 18.8663C101.451 18.1 100.867 17.808 98.3855 16.9687C95.6486 16.0199 95.2472 15.728 95.2472 14.7427C95.2472 13.7574 96.0136 13.2465 97.4002 13.2465C98.8234 13.2465 100.101 13.6844 101.633 14.7062L103.348 11.4584C101.487 10.2177 99.5168 9.63385 97.1083 9.63385C92.9847 9.63385 90.6128 11.6044 90.6128 14.9617C90.6128 17.6256 92.1089 19.3407 95.3932 20.4354C98.1666 21.3477 98.1666 21.3477 98.6775 21.6762C99.0789 21.9681 99.2978 22.4425 99.2978 22.9899C99.2978 24.2306 98.349 24.8145 96.3785 24.8145C94.5539 24.8145 93.0212 24.3766 91.5616 23.3913L89.8464 26.8215Z" fill="black"/>
<path d="M107.713 27.9528H112.858V19.2677C112.858 15.1806 113.734 13.7209 116.215 13.7209C118.405 13.7209 119.135 14.9982 119.135 18.7203V27.9528H124.28V18.4284C124.28 15.655 124.024 13.8669 123.441 12.6262C122.528 10.6556 120.631 9.63385 117.93 9.63385C115.704 9.63385 114.099 10.2542 112.858 11.5679V0H107.713V27.9528Z" fill="black"/>
<path fill-rule="evenodd" clip-rule="evenodd" d="M13.397 0.992188C13.2191 1.00179 13.0424 1.04086 12.8748 1.10937L0.978982 5.96997C0.386274 6.21215 0 6.7814 0 7.41269V18.4152C0.353693 22.0763 3.5294 30.5527 13.397 33.8753C23.2647 30.5527 26.4404 22.0763 26.7941 18.4152V7.41269C26.7941 6.7814 26.4078 6.21215 25.8151 5.96997L13.9193 1.10937C13.7516 1.04086 13.575 1.00179 13.397 0.992188ZM22.1715 12.6123C22.8094 11.8943 22.7267 10.8104 21.9867 10.1914C21.2468 9.5724 20.1299 9.65269 19.492 10.3707L11.8491 18.9742L7.88772 15.3863C7.17354 14.7394 6.05421 14.7769 5.38764 15.47C4.72107 16.163 4.75967 17.2492 5.47385 17.8961L10.5114 22.4587C11.3925 23.2567 12.7806 23.1836 13.5675 22.2978L22.1715 12.6123Z" fill="#0071F6"/>
<path fill-rule="evenodd" clip-rule="evenodd" d="M13.3993 0.992309C13.3985 0.992268 13.3978 0.992228 13.397 0.992188C13.2191 1.00179 13.0424 1.04086 12.8748 1.10937L0.978982 5.96997C0.386274 6.21215 0 6.7814 0 7.41269V18.4152C0.353693 22.0763 3.5294 30.5527 13.397 33.8753C13.3978 33.8751 13.3985 33.8748 13.3993 33.8746V22.467C12.5945 23.1895 11.3327 23.2026 10.5114 22.4587L5.47385 17.8961C4.75967 17.2492 4.72107 16.163 5.38764 15.47C6.05421 14.7769 7.17354 14.7394 7.88772 15.3863L11.8491 18.9742L13.3993 17.2293V0.992309Z" fill="#D9D9D9"/>
<path fill-rule="evenodd" clip-rule="evenodd" d="M13.3993 0.992309C13.3985 0.992268 13.3978 0.992228 13.397 0.992188C13.2191 1.00179 13.0424 1.04086 12.8748 1.10937L0.978982 5.96997C0.386274 6.21215 0 6.7814 0 7.41269V18.4152C0.353693 22.0763 3.5294 30.5527 13.397 33.8753C13.3978 33.8751 13.3985 33.8748 13.3993 33.8746V22.467C12.5945 23.1895 11.3327 23.2026 10.5114 22.4587L5.47385 17.8961C4.75967 17.2492 4.72107 16.163 5.38764 15.47C6.05421 14.7769 7.17354 14.7394 7.88772 15.3863L11.8491 18.9742L13.3993 17.2293V0.992309Z" fill="url(#paint0_linear_616_81)"/>
<defs>
<linearGradient id="paint0_linear_616_81" x1="3.72202" y1="2.97715" x2="21.9298" y2="18.5797" gradientUnits="userSpaceOnUse">
<stop stop-color="#01DAFE"/>
<stop offset="0.165753" stop-color="#01CBFD"/>
<stop offset="0.346176" stop-color="#01A9FA"/>
<stop offset="0.581306" stop-color="#008CF8"/>
<stop offset="0.823188" stop-color="#0077F6"/>
<stop offset="0.994792" stop-color="#0071F6"/>
</linearGradient>
</defs>
</svg>
