<svg width="160" height="41" viewBox="0 0 160 41" fill="none" xmlns="http://www.w3.org/2000/svg">
<path fill-rule="evenodd" clip-rule="evenodd" d="M152.26 29.8107V30.1244H152.865H153.471V31.6709V33.2175H153.886H154.302V31.6709V30.1244H154.907H155.513V29.8107V29.4971H153.886H152.26V29.8107ZM156.035 31.3573V33.2175H156.427H156.818L156.824 31.7918L156.831 30.3661L157.223 31.7864L157.616 33.2067L158.019 33.2126L158.422 33.2185L158.523 32.8557C158.578 32.6562 158.757 32.0121 158.92 31.4244C159.083 30.8367 159.222 30.3508 159.228 30.3447C159.235 30.3385 159.241 30.9824 159.241 31.7755V33.2175H159.62H160V31.3573V29.4971H159.371C158.88 29.4971 158.742 29.5031 158.742 29.5244C158.742 29.5395 158.645 29.8875 158.526 30.2977C158.235 31.306 158.131 31.6665 158.086 31.8332C158.064 31.9105 158.04 31.9807 158.032 31.9893C158.024 31.9978 157.933 31.7155 157.83 31.362C157.727 31.0085 157.608 30.6024 157.566 30.4596C157.523 30.3169 157.443 30.0419 157.388 29.8486L157.287 29.4971H156.661H156.035V31.3573Z" fill="white"/>
<path d="M48.0254 33.8318H54.2622V23.3643C54.2622 18.3293 55.2353 16.5626 57.9778 16.5626C60.3221 16.5626 61.0741 18.0642 61.0741 22.6134V33.8318H67.3109V23.2759C67.3109 18.3734 68.3282 16.5626 71.0265 16.5626C73.3708 16.5626 74.1228 18.0642 74.1228 22.6134V33.8318H80.3596V22.3043C80.3596 18.9476 80.0499 16.7392 79.4307 15.2376C78.4133 12.8526 76.2017 11.6159 73.1054 11.6159C70.0533 11.6159 68.0629 12.5434 66.2493 14.8401C65.1435 12.6759 63.153 11.6159 60.1009 11.6159C57.3143 11.6159 55.6334 12.3667 53.9526 14.3101L53.5987 12.1901H48.0254V33.8318Z" fill="white"/>
<path d="M105.862 24.5126C105.95 23.6293 105.95 23.1434 105.95 22.6134C105.95 15.5026 102.279 11.6601 95.5553 11.6601C88.8761 11.6601 85.0721 15.7676 85.0721 23.0109C85.0721 30.5635 89.0088 34.406 96.7938 34.406C100.2 34.406 102.721 33.8318 105.375 32.5068L103.517 28.1785C101.571 29.3268 99.492 29.8568 97.1034 29.8568C93.2552 29.8568 91.1762 28.0018 91.1762 24.5126H105.862ZM91.2647 20.5376C91.3974 17.4901 92.9455 15.9001 95.7322 15.9001C98.5631 15.9001 99.8901 17.3576 100.023 20.5376H91.2647Z" fill="white"/>
<path d="M108.905 32.4626C111.249 33.8318 113.638 34.406 117.044 34.406C123.104 34.406 126.067 32.1535 126.067 27.6043C126.067 25.5284 125.404 23.8501 124.077 22.8343C122.971 21.9068 122.263 21.5534 119.255 20.5376C115.938 19.3893 115.451 19.0359 115.451 17.8434C115.451 16.6509 116.38 16.0326 118.061 16.0326C119.786 16.0326 121.334 16.5626 123.192 17.7992L125.271 13.8684C123.015 12.3667 120.627 11.6601 117.707 11.6601C112.709 11.6601 109.834 14.0451 109.834 18.1084C109.834 21.3326 111.647 23.4084 115.628 24.7334C118.99 25.8376 118.99 25.8376 119.609 26.2351C120.096 26.5885 120.361 27.1626 120.361 27.8251C120.361 29.3268 119.211 30.0335 116.823 30.0335C114.611 30.0335 112.753 29.5035 110.984 28.311L108.905 32.4626Z" fill="white"/>
<path d="M130.561 33.8318H136.798V23.3201C136.798 18.3734 137.859 16.6067 140.867 16.6067C143.521 16.6067 144.406 18.1526 144.406 22.6576V33.8318H150.643V22.3043C150.643 18.9476 150.333 16.7834 149.625 15.2817C148.52 12.8967 146.219 11.6601 142.946 11.6601C140.248 11.6601 138.302 12.4109 136.798 14.0009V0H130.561V33.8318Z" fill="white"/>
<rect x="4.84863" y="9.68213" width="23.0304" height="20.5755" fill="white"/>
<path fill-rule="evenodd" clip-rule="evenodd" d="M16.2389 1.20068C16.0232 1.21231 15.8091 1.2596 15.6059 1.34251L1.18665 7.22539C0.468213 7.51851 0 8.20748 0 8.97155V22.2881C0.428722 26.7192 4.27808 36.9784 16.2389 40.9998C28.1998 36.9784 32.0491 26.7192 32.4778 22.2881V8.97155C32.4778 8.20748 32.0096 7.51851 31.2912 7.22539L16.872 1.34251C16.6687 1.2596 16.4546 1.21231 16.2389 1.20068ZM26.8747 15.2648C27.6479 14.3957 27.5476 13.0839 26.6507 12.3347C25.7538 11.5855 24.4 11.6827 23.6268 12.5517L14.3627 22.9647L9.56093 18.6222C8.69525 17.8393 7.33848 17.8846 6.53051 18.7234C5.72254 19.5622 5.76933 20.8769 6.63501 21.6598L12.7412 27.1821C13.8091 28.1479 15.4917 28.0594 16.4455 26.9873L26.8747 15.2648Z" fill="#0071F6"/>
<path fill-rule="evenodd" clip-rule="evenodd" d="M16.2414 1.20082C16.2406 1.20077 16.2398 1.20073 16.2389 1.20068C16.0232 1.21231 15.8091 1.2596 15.6059 1.34251L1.18665 7.22539C0.468213 7.51851 0 8.20748 0 8.97155V22.2881C0.428722 26.7192 4.27808 36.9784 16.2389 40.9998C16.2398 40.9995 16.2406 40.9993 16.2414 40.999V27.1922C15.2659 28.0666 13.7366 28.0823 12.7412 27.1821L6.63501 21.6598C5.76933 20.8769 5.72254 19.5622 6.53051 18.7234C7.33848 17.8846 8.69525 17.8393 9.56093 18.6222L14.3627 22.9647L16.2414 20.853V1.20082Z" fill="#D9D9D9"/>
<path fill-rule="evenodd" clip-rule="evenodd" d="M16.2414 1.20082C16.2406 1.20077 16.2398 1.20073 16.2389 1.20068C16.0232 1.21231 15.8091 1.2596 15.6059 1.34251L1.18665 7.22539C0.468213 7.51851 0 8.20748 0 8.97155V22.2881C0.428722 26.7192 4.27808 36.9784 16.2389 40.9998C16.2398 40.9995 16.2406 40.9993 16.2414 40.999V27.1922C15.2659 28.0666 13.7366 28.0823 12.7412 27.1821L6.63501 21.6598C5.76933 20.8769 5.72254 19.5622 6.53051 18.7234C7.33848 17.8846 8.69525 17.8393 9.56093 18.6222L14.3627 22.9647L16.2414 20.853V1.20082Z" fill="url(#paint0_linear_1317_394)"/>
<defs>
<linearGradient id="paint0_linear_1317_394" x1="4.51156" y1="3.60313" x2="26.5538" y2="22.5197" gradientUnits="userSpaceOnUse">
<stop stop-color="#01DAFE"/>
<stop offset="0.165753" stop-color="#01CBFD"/>
<stop offset="0.346176" stop-color="#01A9FA"/>
<stop offset="0.581306" stop-color="#008CF8"/>
<stop offset="0.823188" stop-color="#0077F6"/>
<stop offset="0.994792" stop-color="#0071F6"/>
</linearGradient>
</defs>
</svg>
